{"title":"Cowboys.And.Aliens.2011.EXTENDED.BRRip.720p.x264.Feel-Free","uid":6837730,"size":3497416730,"categoryP":"video","categoryS":"hd___movies","magnet":"?xt=urn:btih:7639bea146fc3e9b90dee6225d1adcad889ff3af&amp;dn=Cowboys.And.Aliens.2011.EXTENDED.BRRip.720p.x264.Feel-Free&amp;tr=udp%3A%2F%2Ftracker.openbittorrent.com%3A80&amp;tr=udp%3A%2F%2Fopen.demonii.com%3A1337&amp;tr=udp%3A%2F%2Ftracker.coppersurfer.tk%3A6969&amp;tr=udp%3A%2F%2Fexodus.desync.com%3A6969","seeders":0,"leechers":0,"uploader":"Test_Verify","files":-1,"time":1322063867,"description":"Genre............: Action | Sci-Fi | Thriller\nLanguage.........: English\nIMDb.............: http://www.imdb.com/title/tt0409847/\nSource...........: EXTENDED.1080p.BluRay.x264-CROSSBOW Thanks!\n\n\nFormat : MPEG-4\nFormat profile : Base Media\nCodec ID : isom\nFile size : 3.25 GiB\nDuration : 2h 15mn\nOverall bit rate : 3 444 Kbps\n\nVideo\nID : 1\nFormat : AVC\nFormat/Info : Advanced Video Codec\nFormat profile : &lt;a class=&quot;__cf_email__&quot; href=&quot;/cdn-cgi/l/email-protection&quot; data-cfemail=&quot;7f371618173f334a514e&quot;&gt;[email&amp;#160;protected]&lt;/a&gt;&lt;script cf-hash='f9e31' type=&quot;text/javascript&quot;&gt;\n/* &lt;![CDATA[ */!function(){try{var t=&quot;currentScript&quot;in document?document.currentScript:function(){for(var t=document.getElementsByTagName(&quot;script&quot;),e=t.length;e--;)if(t[e].getAttribute(&quot;cf-hash&quot;))return t[e]}();if(t&amp;&amp;t.previousSibling){var e,r,n,i,c=t.previousSibling,a=c.getAttribute(&quot;data-cfemail&quot;);if(a){for(e=&quot;&quot;,r=parseInt(a.substr(0,2),16),n=2;a.length-n;n+=2)i=parseInt(a.substr(n,2),16)^r,e+=String.fromCharCode(i);e=document.createTextNode(e),c.parentNode.replaceChild(e,c)}}}catch(u){}}();/* ]]&gt; */&lt;/script&gt;\nFormat settings, CABAC : Yes\nFormat settings, ReFrames : 3 frames\nCodec ID : avc1\nCodec ID/Info : Advanced Video Coding\nDuration : 2h 15mn\nBit rate mode : Variable\nBit rate : 3 000 Kbps\nMaximum bit rate : 34.2 Mbps\nWidth : 1 280 pixels\nHeight : 536 pixels\nDisplay aspect ratio : 2.35:1\nFrame rate mode : Constant\nFrame rate : 23.976 fps\nColor space : YUV\nChroma subsampling : 4:2:0\nBit depth : 8 bits\nScan type : Progressive\nBits/(Pixel*Frame) : 0.182\nStream size : 2.83 GiB (87%)\nWriting library : x264\n\nAudio\nID : 2\nFormat : AAC\nFormat/Info : Advanced Audio Codec\nFormat version : Version 4\nFormat profile : LC\nFormat settings, SBR : No\nCodec ID : 40\nDuration : 2h 15mn\nBit rate mode : Variable\nBit rate : 443 Kbps\nMaximum bit rate : 528 Kbps\nChannel(s) : 6 channels\nChannel positions : Front: L C R, Side: L R, LFE\nSampling rate : 48.0 KHz\nStream size : 428 MiB (13%)\n\n\nPlot:\nA spaceship arrives in Arizona, 1873, to take over the Earth, starting with the Wild West region. A posse of cowboys are all that stand in their way.\n\n\nScreens :\n\n &lt;a href=&quot;\nhttp://img847.imageshack.us/img847/4919/vlcsnap00006r.png&quot; rel=&quot;nofollow&quot; target=&quot;_NEW&quot;&gt;\nhttp://img847.imageshack.us/img847/4919/vlcsnap00006r.png&lt;/a&gt;\n &lt;a href=&quot;\nhttp://img62.imageshack.us/img62/4374/vlcsnap00004c.png&quot; rel=&quot;nofollow&quot; target=&quot;_NEW&quot;&gt;\nhttp://img62.imageshack.us/img62/4374/vlcsnap00004c.png&lt;/a&gt;\n &lt;a href=&quot;\nhttp://img9.imageshack.us/img9/2381/vlcsnap00005jb.png&quot; rel=&quot;nofollow&quot; target=&quot;_NEW&quot;&gt;\nhttp://img9.imageshack.us/img9/2381/vlcsnap00005jb.png&lt;/a&gt;\n &lt;a href=&quot;\nhttp://img3.imageshack.us/img3/794/vlcsnap00001hq.png&quot; rel=&quot;nofollow&quot; target=&quot;_NEW&quot;&gt;\nhttp://img3.imageshack.us/img3/794/vlcsnap00001hq.png&lt;/a&gt;","torrent":{"xt":"urn:btih:7639bea146fc3e9b90dee6225d1adcad889ff3af","amp;dn":"Cowboys.And.Aliens.2011.EXTENDED.BRRip.720p.x264.Feel-Free","amp;tr":["udp%3A%2F%2Ftracker.openbittorrent.com%3A80","udp%3A%2F%2Fopen.demonii.com%3A1337","udp%3A%2F%2Ftracker.coppersurfer.tk%3A6969","udp%3A%2F%2Fexodus.desync.com%3A6969"],"infoHash":"7639bea146fc3e9b90dee6225d1adcad889ff3af","infoHashBuffer":{"type":"Buffer","data":[118,57,190,161,70,252,62,155,144,222,230,34,93,26,220,173,136,159,243,175]},"announce":[],"urlList":[]}}